<?xml version="1.0" encoding="UTF-8"?>
<svg id="Layer_1" data-name="Layer 1" xmlns="http://www.w3.org/2000/svg" viewBox="0 0 911.64 165.5">
  <defs>
    <style>
      .cls-1 {
        fill: #fff;
      }

      .cls-2 {
        fill: #b1b1b1;
      }
    </style>
  </defs>
  <path class="cls-2" d="M55.58,53.75l-34.48,20.44H0L55.58,40.21v13.54Zm0,40.79v13.71L0,74.19H21.1l34.48,20.35Z"/>
  <path class="cls-1" d="M97.04,46.44h-21.52L109.58,0V27.42l-12.54,19.03Zm25.09,0l-12.54-19.03V0l34.06,46.44h-21.52Z"/>
  <path class="cls-2" d="M163.58,53.75v-13.54l55.58,33.98h-21.1l-34.48-20.44Zm0,40.79l34.48-20.35h21.1l-55.58,34.06v-13.71Z"/>
  <path class="cls-1" d="M237.44,129.52V8.72h19.86v120.8h-19.86Zm51.09,0v-52.26c0-5.21-1.39-9.21-4.15-12-2.77-2.8-6.7-4.2-11.8-4.2s-8.64,1.3-11.3,3.91c-2.66,2.6-3.99,6.29-3.99,11.05l-1.75-17.86c2.55-5.15,5.79-9.12,9.72-11.92,3.93-2.8,8.64-4.2,14.12-4.2,9.25,0,16.39,3.06,21.43,9.18,5.04,6.12,7.56,14.78,7.56,25.96v52.34h-19.86Z"/>
  <path class="cls-1" d="M356.08,136.58l-35.23-93.3h19.36l27.75,74.94-11.88,18.36Zm23.43-93.3h19.36l-37.55,106.43c-2.11,5.93-5.08,10.04-8.93,12.34-3.85,2.3-9.15,3.45-15.91,3.45h-4.24v-19.19h4.24c2.77,0,5.03-.58,6.77-1.75,1.75-1.16,3.2-3.13,4.36-5.9l31.9-95.38Z"/>
  <path class="cls-1" d="M412.16,164.58V43.28h19.86v121.3h-19.86Zm40.71-33.81c-5.21,0-9.72-1.29-13.54-3.86s-6.65-6.22-8.47-10.92l1.16-18.86c0,3.27,.58,6.05,1.74,8.35,1.16,2.3,2.85,4.06,5.07,5.28,2.21,1.22,4.9,1.83,8.06,1.83,4.93,0,8.75-1.56,11.46-4.69,2.71-3.13,4.07-7.52,4.07-13.17v-16.2c0-5.82-1.36-10.32-4.07-13.5-2.71-3.18-6.54-4.78-11.46-4.78-3.16,0-5.84,.6-8.06,1.79-2.22,1.19-3.91,2.94-5.07,5.23-1.16,2.3-1.74,5.11-1.74,8.43l-1.75-17.86c2.49-5.04,5.73-8.93,9.72-11.67,3.99-2.74,8.42-4.11,13.29-4.11,9.25,0,16.39,3.17,21.44,9.51,5.04,6.34,7.56,15.3,7.56,26.88v16.28c0,11.46-2.56,20.34-7.69,26.63-5.12,6.29-12.37,9.43-21.73,9.43Z"/>
  <path class="cls-1" d="M504.71,129.52V43.28h20.69v86.24h-20.69Zm48.02-64.05c-1.28-1.44-2.89-2.53-4.86-3.28-1.97-.75-4.22-1.12-6.77-1.12-4.98,0-8.85,1.48-11.59,4.45-2.74,2.96-4.11,7.08-4.11,12.34l-1.75-19.52c2.49-5.1,5.75-9.08,9.76-11.96,4.02-2.88,8.43-4.32,13.25-4.32,3.77,0,7.17,.57,10.22,1.7,3.04,1.14,5.7,2.81,7.98,5.03l-12.13,16.7Z"/>
  <path class="cls-2" d="M607.81,130.77c-7.03,0-13.67-1.04-19.9-3.12s-11.56-4.97-15.99-8.68l6.9-8.39c4.71,3.16,9.58,5.61,14.62,7.35,5.04,1.75,9.83,2.62,14.37,2.62,8.25,0,14.64-1.41,19.15-4.24,4.51-2.82,6.77-6.81,6.77-11.96,0-4.32-1.36-7.39-4.07-9.22-2.71-1.83-6.27-3.02-10.68-3.57-4.4-.55-9.1-1.02-14.08-1.41-3.49-.28-6.95-.71-10.39-1.29-3.43-.58-6.56-1.59-9.39-3.03-2.82-1.44-5.08-3.56-6.77-6.36-1.69-2.8-2.53-6.58-2.53-11.34,0-8.31,3-14.73,9.01-19.28,6.01-4.54,14.5-6.81,25.46-6.81,5.7,0,11.31,.83,16.82,2.49,5.51,1.66,10.45,3.99,14.83,6.98l-6.9,8.22c-4.1-2.38-8.35-4.22-12.75-5.52-4.4-1.3-8.57-1.95-12.5-1.95-7.26,0-12.88,1.36-16.87,4.07-3.99,2.71-5.98,6.54-5.98,11.46,0,3.77,1.23,6.47,3.7,8.1,2.46,1.63,5.69,2.7,9.68,3.2,3.99,.5,8.33,.89,13.04,1.16,3.6,.22,7.24,.61,10.92,1.16,3.68,.55,7.08,1.61,10.18,3.16,3.1,1.55,5.59,3.89,7.48,7.02,1.88,3.13,2.82,7.38,2.82,12.75,0,8.36-3.23,14.86-9.68,19.48-6.45,4.63-15.55,6.94-27.29,6.94Z"/>
  <path class="cls-2" d="M666.38,164.58V43.28h11.96v121.3h-11.96Zm38.63-33.81c-6.54,0-12.24-1.08-17.11-3.24-4.87-2.16-8.45-6.01-10.72-11.55l1.16-18.03c0,3.66,.86,7.21,2.58,10.68,1.72,3.46,4.21,6.3,7.48,8.52,3.27,2.22,7.23,3.32,11.88,3.32,7.2,0,12.77-2.15,16.7-6.44,3.93-4.29,5.9-10.32,5.9-18.07v-18.69c0-7.92-1.97-14.05-5.9-18.4-3.93-4.35-9.5-6.52-16.7-6.52-4.65,0-8.61,1.09-11.88,3.28-3.27,2.19-5.76,4.97-7.48,8.35-1.72,3.38-2.58,6.87-2.58,10.47l-1.74-16.62c3.1-5.87,7.2-9.97,12.3-12.3,5.09-2.33,10.74-3.49,16.95-3.49,9.25,0,16.39,3.06,21.43,9.18,5.04,6.12,7.56,14.78,7.56,25.96v18.78c0,11.02-2.6,19.58-7.81,25.67-5.21,6.09-12.54,9.14-22.02,9.14Z"/>
  <path class="cls-2" d="M793.75,130.77c-12.46,0-21.8-3.12-28-9.35-6.2-6.23-9.3-15.6-9.3-28.12v-14.21c0-12.41,3.1-21.68,9.3-27.83,6.2-6.15,15.54-9.22,28-9.22,7.09,0,13.22,1.15,18.4,3.45,5.18,2.3,9.46,5.75,12.84,10.34l-8.89,7.89c-2.94-3.54-6.25-6.19-9.93-7.93-3.68-1.74-7.74-2.62-12.17-2.62-8.53,0-14.93,2.15-19.19,6.44-4.27,4.29-6.4,10.79-6.4,19.48v14.21c0,8.81,2.13,15.4,6.4,19.77,4.26,4.38,10.66,6.56,19.19,6.56,4.71,0,8.99-.83,12.84-2.49,3.85-1.66,7.32-4.18,10.43-7.56l7.73,7.64c-3.38,4.54-7.66,7.93-12.84,10.18-5.18,2.24-11.31,3.36-18.4,3.36Z"/>
  <path class="cls-2" d="M878.99,130.77c-12.02,0-21.32-3.36-27.92-10.09-6.59-6.73-9.89-16.24-9.89-28.54v-9.72c0-12.85,3.17-22.79,9.51-29.83,6.34-7.03,15.27-10.55,26.79-10.55,10.85,0,19.26,3.46,25.21,10.39,5.95,6.92,8.93,16.7,8.93,29.33v9.89h-62.31v-10.8h51.18v-.83c0-8.53-2.01-15.13-6.02-19.81-4.02-4.68-9.68-7.02-16.99-7.02-8.03,0-14.24,2.47-18.61,7.39-4.38,4.93-6.56,11.91-6.56,20.94v10.97c0,8.64,2.33,15.33,6.98,20.06,4.65,4.74,11.22,7.1,19.69,7.1,3.99,0,7.93-.83,11.84-2.49,3.91-1.66,7.38-4.01,10.43-7.06l8.14,7.81c-4.21,4.1-8.97,7.27-14.29,9.51-5.32,2.24-10.69,3.36-16.12,3.36Z"/>
</svg>