<?xml version="1.0" encoding="utf-8"?>
<!-- Generator: Adobe Illustrator 27.0.0, SVG Export Plug-In . SVG Version: 6.00 Build 0)  -->
<svg version="1.1" xmlns="http://www.w3.org/2000/svg" xmlns:xlink="http://www.w3.org/1999/xlink" x="0px" y="0px"
	 viewBox="0 0 1000 1000" style="enable-background:new 0 0 1000 1000;" xml:space="preserve">
<style type="text/css">
	.st0{display:none;}
	.st1{fill:#B1B1B1;}
	.st2{fill:#FFFFFF;}
	.st3{display:inline;}
</style>
<g id="Layer_1">
	<rect class="st0" width="1000" height="1000"/>
	<g>
		<g>
			<g>
				<path class="st1" d="M99.76,471.01l-34.48,20.44h-21.1l55.58-33.98V471.01z M99.76,511.8v13.71l-55.58-34.06h21.1L99.76,511.8z"
					/>
				<path class="st2" d="M141.22,463.7H119.7l34.06-46.44v27.42L141.22,463.7z M166.31,463.7l-12.54-19.03v-27.42l34.06,46.44
					H166.31z"/>
				<path class="st1" d="M207.77,471.01v-13.54l55.58,33.98h-21.1L207.77,471.01z M207.77,511.8l34.48-20.35h21.1l-55.58,34.06
					V511.8z"/>
				<path class="st2" d="M281.62,546.78v-120.8h19.86v120.8H281.62z M332.72,546.78v-52.26c0-5.21-1.39-9.21-4.15-12
					c-2.77-2.8-6.7-4.2-11.8-4.2c-4.88,0-8.64,1.3-11.3,3.91c-2.66,2.6-3.99,6.29-3.99,11.05l-1.75-17.86
					c2.55-5.15,5.79-9.12,9.72-11.92c3.93-2.8,8.64-4.2,14.12-4.2c9.25,0,16.39,3.06,21.43,9.18c5.04,6.12,7.56,14.78,7.56,25.96
					v52.34H332.72z"/>
				<path class="st2" d="M402.75,553.84l-35.23-93.3h19.36l27.75,74.94L402.75,553.84z M426.18,460.54h19.36l-37.55,106.43
					c-2.11,5.93-5.08,10.04-8.93,12.34c-3.85,2.3-9.15,3.45-15.91,3.45h-4.24v-19.19h4.24c2.77,0,5.03-0.58,6.77-1.75
					c1.75-1.16,3.2-3.13,4.36-5.9L426.18,460.54z"/>
				<path class="st2" d="M458.83,581.83v-121.3h19.86v121.3H458.83z M499.54,548.02c-5.21,0-9.72-1.29-13.54-3.86
					c-3.82-2.58-6.65-6.22-8.47-10.92l1.16-18.86c0,3.27,0.58,6.05,1.75,8.35c1.16,2.3,2.85,4.06,5.07,5.28
					c2.21,1.22,4.9,1.83,8.06,1.83c4.93,0,8.75-1.56,11.46-4.69c2.71-3.13,4.07-7.52,4.07-13.17v-16.2c0-5.82-1.36-10.32-4.07-13.5
					c-2.71-3.18-6.54-4.78-11.46-4.78c-3.16,0-5.84,0.6-8.06,1.79c-2.22,1.19-3.9,2.94-5.07,5.23c-1.16,2.3-1.75,5.11-1.75,8.43
					l-1.75-17.86c2.49-5.04,5.73-8.93,9.72-11.67c3.99-2.74,8.42-4.11,13.29-4.11c9.25,0,16.39,3.17,21.43,9.51
					c5.04,6.34,7.56,15.3,7.56,26.88v16.28c0,11.46-2.56,20.34-7.69,26.63C516.15,544.88,508.9,548.02,499.54,548.02z"/>
				<path class="st2" d="M551.38,546.78v-86.24h20.69v86.24H551.38z M599.41,482.72c-1.28-1.44-2.89-2.53-4.86-3.28
					c-1.97-0.75-4.22-1.12-6.77-1.12c-4.98,0-8.85,1.48-11.59,4.45c-2.74,2.96-4.11,7.08-4.11,12.34l-1.75-19.52
					c2.49-5.1,5.75-9.08,9.76-11.96c4.02-2.88,8.43-4.32,13.25-4.32c3.77,0,7.17,0.57,10.22,1.7c3.04,1.14,5.7,2.81,7.98,5.03
					L599.41,482.72z"/>
				<path class="st1" d="M654.49,548.02c-7.03,0-13.67-1.04-19.9-3.12s-11.56-4.97-15.99-8.68l6.9-8.39
					c4.71,3.16,9.58,5.61,14.62,7.35c5.04,1.75,9.83,2.62,14.37,2.62c8.25,0,14.64-1.41,19.15-4.24c4.51-2.82,6.77-6.81,6.77-11.96
					c0-4.32-1.36-7.39-4.07-9.22c-2.71-1.83-6.27-3.02-10.68-3.57c-4.4-0.55-9.1-1.02-14.08-1.41c-3.49-0.28-6.95-0.71-10.39-1.29
					c-3.43-0.58-6.56-1.59-9.39-3.03c-2.82-1.44-5.08-3.56-6.77-6.36c-1.69-2.8-2.53-6.58-2.53-11.34c0-8.31,3-14.73,9.01-19.28
					c6.01-4.54,14.5-6.81,25.46-6.81c5.7,0,11.31,0.83,16.82,2.49c5.51,1.66,10.45,3.99,14.83,6.98l-6.9,8.22
					c-4.1-2.38-8.35-4.22-12.75-5.52c-4.4-1.3-8.57-1.95-12.5-1.95c-7.26,0-12.88,1.36-16.87,4.07c-3.99,2.71-5.98,6.54-5.98,11.46
					c0,3.77,1.23,6.47,3.7,8.1c2.46,1.63,5.69,2.7,9.68,3.2c3.99,0.5,8.33,0.89,13.04,1.16c3.6,0.22,7.24,0.61,10.92,1.16
					c3.68,0.55,7.08,1.61,10.18,3.16c3.1,1.55,5.59,3.89,7.48,7.02c1.88,3.13,2.82,7.38,2.82,12.75c0,8.36-3.23,14.86-9.68,19.48
					C675.33,545.71,666.23,548.02,654.49,548.02z"/>
				<path class="st1" d="M713.06,581.83v-121.3h11.96v121.3H713.06z M751.69,548.02c-6.54,0-12.24-1.08-17.11-3.24
					c-4.87-2.16-8.45-6.01-10.72-11.55l1.16-18.03c0,3.66,0.86,7.21,2.58,10.68c1.72,3.46,4.21,6.3,7.48,8.52
					c3.27,2.22,7.23,3.32,11.88,3.32c7.2,0,12.77-2.15,16.7-6.44c3.93-4.29,5.9-10.32,5.9-18.07v-18.69c0-7.92-1.97-14.05-5.9-18.4
					c-3.93-4.35-9.5-6.52-16.7-6.52c-4.65,0-8.61,1.09-11.88,3.28c-3.27,2.19-5.76,4.97-7.48,8.35c-1.72,3.38-2.58,6.87-2.58,10.47
					l-1.74-16.62c3.1-5.87,7.2-9.97,12.3-12.3c5.09-2.33,10.74-3.49,16.95-3.49c9.25,0,16.39,3.06,21.43,9.18
					c5.04,6.12,7.56,14.78,7.56,25.96v18.78c0,11.02-2.6,19.58-7.81,25.67C768.5,544.98,761.16,548.02,751.69,548.02z"/>
				<path class="st1" d="M840.42,548.02c-12.46,0-21.8-3.12-28-9.35c-6.2-6.23-9.3-15.6-9.3-28.12v-14.21
					c0-12.41,3.1-21.68,9.3-27.83c6.2-6.15,15.54-9.22,28-9.22c7.09,0,13.22,1.15,18.4,3.45c5.18,2.3,9.46,5.75,12.84,10.34
					l-8.89,7.89c-2.94-3.54-6.25-6.19-9.93-7.93c-3.68-1.74-7.74-2.62-12.17-2.62c-8.53,0-14.93,2.15-19.19,6.44
					c-4.27,4.29-6.4,10.79-6.4,19.48v14.21c0,8.81,2.13,15.4,6.4,19.77c4.26,4.38,10.66,6.56,19.19,6.56
					c4.71,0,8.99-0.83,12.84-2.49c3.85-1.66,7.32-4.18,10.43-7.56l7.73,7.64c-3.38,4.54-7.66,7.93-12.84,10.18
					C853.64,546.9,847.51,548.02,840.42,548.02z"/>
				<path class="st1" d="M925.66,548.02c-12.02,0-21.32-3.36-27.92-10.09c-6.59-6.73-9.89-16.24-9.89-28.54v-9.72
					c0-12.85,3.17-22.79,9.51-29.83c6.34-7.03,15.27-10.55,26.79-10.55c10.85,0,19.26,3.46,25.21,10.39
					c5.95,6.92,8.93,16.7,8.93,29.33v9.89H896v-10.8h51.18v-0.83c0-8.53-2.01-15.13-6.02-19.81c-4.02-4.68-9.68-7.02-16.99-7.02
					c-8.03,0-14.24,2.47-18.61,7.39c-4.38,4.93-6.56,11.91-6.56,20.94v10.97c0,8.64,2.33,15.33,6.98,20.06
					c4.65,4.74,11.22,7.1,19.69,7.1c3.99,0,7.93-0.83,11.84-2.49c3.91-1.66,7.38-4.01,10.43-7.06l8.14,7.81
					c-4.21,4.1-8.97,7.27-14.29,9.51C936.46,546.9,931.09,548.02,925.66,548.02z"/>
			</g>
		</g>
	</g>
	<g class="st0">
		<g class="st3">
			<path class="st1" d="M99.76,471.01l-34.48,20.44h-21.1l55.58-33.98V471.01z M99.76,511.8v13.71l-55.58-34.06h21.1L99.76,511.8z"
				/>
			<path class="st2" d="M141.22,463.7H119.7l34.06-46.44v27.42L141.22,463.7z M166.31,463.7l-12.54-19.03v-27.42l34.06,46.44H166.31
				z"/>
			<path class="st1" d="M207.77,471.01v-13.54l55.58,33.98h-21.1L207.77,471.01z M207.77,511.8l34.48-20.35h21.1l-55.58,34.06V511.8
				z"/>
			<path class="st2" d="M281.62,546.78v-120.8h19.86v120.8H281.62z M332.72,546.78v-52.26c0-5.21-1.39-9.21-4.15-12
				c-2.77-2.8-6.7-4.2-11.8-4.2c-4.88,0-8.64,1.3-11.3,3.91c-2.66,2.6-3.99,6.29-3.99,11.05l-1.75-17.86
				c2.55-5.15,5.79-9.12,9.72-11.92c3.93-2.8,8.64-4.2,14.12-4.2c9.25,0,16.39,3.06,21.43,9.18c5.04,6.12,7.56,14.78,7.56,25.96
				v52.34H332.72z"/>
			<path class="st2" d="M400.26,553.84l-35.23-93.3h19.36l27.75,74.94L400.26,553.84z M423.69,460.54h19.36L405.5,566.96
				c-2.11,5.93-5.08,10.04-8.93,12.34c-3.85,2.3-9.15,3.45-15.91,3.45h-4.24v-19.19h4.24c2.77,0,5.03-0.58,6.77-1.75
				c1.75-1.16,3.2-3.13,4.36-5.9L423.69,460.54z"/>
			<path class="st2" d="M456.34,581.83v-121.3h19.86v121.3H456.34z M497.05,548.02c-5.21,0-9.72-1.29-13.54-3.86
				s-6.65-6.22-8.47-10.92l1.16-18.86c0,3.27,0.58,6.05,1.74,8.35c1.16,2.3,2.85,4.06,5.07,5.28c2.21,1.22,4.9,1.83,8.06,1.83
				c4.93,0,8.75-1.56,11.46-4.69c2.71-3.13,4.07-7.52,4.07-13.17v-16.2c0-5.82-1.36-10.32-4.07-13.5
				c-2.71-3.18-6.54-4.78-11.46-4.78c-3.16,0-5.84,0.6-8.06,1.79c-2.22,1.19-3.91,2.94-5.07,5.23c-1.16,2.3-1.74,5.11-1.74,8.43
				l-1.75-17.86c2.49-5.04,5.73-8.93,9.72-11.67c3.99-2.74,8.42-4.11,13.29-4.11c9.25,0,16.39,3.17,21.44,9.51
				c5.04,6.34,7.56,15.3,7.56,26.88v16.28c0,11.46-2.56,20.34-7.69,26.63C513.65,544.88,506.41,548.02,497.05,548.02z"/>
			<path class="st2" d="M548.89,546.78v-86.24h20.69v86.24H548.89z M596.91,482.72c-1.28-1.44-2.89-2.53-4.86-3.28
				c-1.97-0.75-4.22-1.12-6.77-1.12c-4.98,0-8.85,1.48-11.59,4.45c-2.74,2.96-4.11,7.08-4.11,12.34l-1.75-19.52
				c2.49-5.1,5.75-9.08,9.76-11.96c4.02-2.88,8.43-4.32,13.25-4.32c3.77,0,7.17,0.57,10.22,1.7c3.04,1.14,5.7,2.81,7.98,5.03
				L596.91,482.72z"/>
			<path class="st1" d="M652,548.02c-7.03,0-13.67-1.04-19.9-3.12s-11.56-4.97-15.99-8.68l6.9-8.39c4.71,3.16,9.58,5.61,14.62,7.35
				c5.04,1.75,9.83,2.62,14.37,2.62c8.25,0,14.64-1.41,19.15-4.24c4.51-2.82,6.77-6.81,6.77-11.96c0-4.32-1.36-7.39-4.07-9.22
				c-2.71-1.83-6.27-3.02-10.68-3.57c-4.4-0.55-9.1-1.02-14.08-1.41c-3.49-0.28-6.95-0.71-10.39-1.29
				c-3.43-0.58-6.56-1.59-9.39-3.03c-2.82-1.44-5.08-3.56-6.77-6.36c-1.69-2.8-2.53-6.58-2.53-11.34c0-8.31,3-14.73,9.01-19.28
				c6.01-4.54,14.5-6.81,25.46-6.81c5.7,0,11.31,0.83,16.82,2.49c5.51,1.66,10.45,3.99,14.83,6.98l-6.9,8.22
				c-4.1-2.38-8.35-4.22-12.75-5.52c-4.4-1.3-8.57-1.95-12.5-1.95c-7.26,0-12.88,1.36-16.87,4.07c-3.99,2.71-5.98,6.54-5.98,11.46
				c0,3.77,1.23,6.47,3.7,8.1c2.46,1.63,5.69,2.7,9.68,3.2c3.99,0.5,8.33,0.89,13.04,1.16c3.6,0.22,7.24,0.61,10.92,1.16
				c3.68,0.55,7.08,1.61,10.18,3.16c3.1,1.55,5.59,3.89,7.48,7.02c1.88,3.13,2.82,7.38,2.82,12.75c0,8.36-3.23,14.86-9.68,19.48
				C672.83,545.71,663.74,548.02,652,548.02z"/>
			<path class="st1" d="M710.57,581.83v-121.3h11.96v121.3H710.57z M749.2,548.02c-6.54,0-12.24-1.08-17.11-3.24
				c-4.87-2.16-8.45-6.01-10.72-11.55l1.16-18.03c0,3.66,0.86,7.21,2.58,10.68c1.72,3.46,4.21,6.3,7.48,8.52
				c3.27,2.22,7.23,3.32,11.88,3.32c7.2,0,12.77-2.15,16.7-6.44c3.93-4.29,5.9-10.32,5.9-18.07v-18.69c0-7.92-1.97-14.05-5.9-18.4
				c-3.93-4.35-9.5-6.52-16.7-6.52c-4.65,0-8.61,1.09-11.88,3.28c-3.27,2.19-5.76,4.97-7.48,8.35c-1.72,3.38-2.58,6.87-2.58,10.47
				l-1.74-16.62c3.1-5.87,7.2-9.97,12.3-12.3c5.09-2.33,10.74-3.49,16.95-3.49c9.25,0,16.39,3.06,21.43,9.18
				c5.04,6.12,7.56,14.78,7.56,25.96v18.78c0,11.02-2.6,19.58-7.81,25.67C766.01,544.98,758.67,548.02,749.2,548.02z"/>
			<path class="st1" d="M837.93,548.02c-12.46,0-21.8-3.12-28-9.35c-6.2-6.23-9.3-15.6-9.3-28.12v-14.21
				c0-12.41,3.1-21.68,9.3-27.83c6.2-6.15,15.54-9.22,28-9.22c7.09,0,13.22,1.15,18.4,3.45c5.18,2.3,9.46,5.75,12.84,10.34
				l-8.89,7.89c-2.94-3.54-6.25-6.19-9.93-7.93c-3.68-1.74-7.74-2.62-12.17-2.62c-8.53,0-14.93,2.15-19.19,6.44
				c-4.27,4.29-6.4,10.79-6.4,19.48v14.21c0,8.81,2.13,15.4,6.4,19.77c4.26,4.38,10.66,6.56,19.19,6.56c4.71,0,8.99-0.83,12.84-2.49
				c3.85-1.66,7.32-4.18,10.43-7.56l7.73,7.64c-3.38,4.54-7.66,7.93-12.84,10.18C851.15,546.9,845.02,548.02,837.93,548.02z"/>
			<path class="st1" d="M923.17,548.02c-12.02,0-21.32-3.36-27.92-10.09c-6.59-6.73-9.89-16.24-9.89-28.54v-9.72
				c0-12.85,3.17-22.79,9.51-29.83c6.34-7.03,15.27-10.55,26.79-10.55c10.85,0,19.26,3.46,25.21,10.39
				c5.95,6.92,8.93,16.7,8.93,29.33v9.89h-62.31v-10.8h51.18v-0.83c0-8.53-2.01-15.13-6.02-19.81c-4.02-4.68-9.68-7.02-16.99-7.02
				c-8.03,0-14.24,2.47-18.61,7.39c-4.38,4.93-6.56,11.91-6.56,20.94v10.97c0,8.64,2.33,15.33,6.98,20.06
				c4.65,4.74,11.22,7.1,19.69,7.1c3.99,0,7.93-0.83,11.84-2.49c3.91-1.66,7.38-4.01,10.43-7.06l8.14,7.81
				c-4.21,4.1-8.97,7.27-14.29,9.51C933.97,546.9,928.6,548.02,923.17,548.02z"/>
		</g>
	</g>
</g>
<g id="Layer_2">
</g>
</svg>
