<?xml version="1.0" standalone="no"?>
<!DOCTYPE svg PUBLIC "-//W3C//DTD SVG 20010904//EN"
 "http://www.w3.org/TR/2001/REC-SVG-20010904/DTD/svg10.dtd">
<svg version="1.0" xmlns="http://www.w3.org/2000/svg"
 width="950.000000pt" height="950.000000pt" viewBox="0 0 950.000000 950.000000"
 preserveAspectRatio="xMidYMid meet">
<metadata>
Created by potrace 1.16, written by Peter Selinger 2001-2019
</metadata>
<g transform="translate(0.000000,950.000000) scale(0.100000,-0.100000)"
fill="#000000" stroke="none">
<path d="M2680 6485 l0 -155 -30 0 -30 0 0 -60 0 -60 -30 0 -30 0 0 -60 0 -60
-30 0 c-27 0 -30 -3 -30 -30 0 -27 -3 -30 -30 -30 -27 0 -30 -3 -30 -30 0 -27
-3 -30 -30 -30 -27 0 -30 -3 -30 -30 l0 -30 -60 0 -60 0 0 -35 c0 -32 -2 -35
-30 -35 -27 0 -30 -3 -30 -30 l0 -30 -65 0 -65 0 0 -30 c0 -27 -3 -30 -30 -30
-27 0 -30 -3 -30 -30 0 -27 -3 -30 -30 -30 l-30 0 0 -60 0 -60 -30 0 c-27 0
-30 -3 -30 -30 0 -27 -3 -30 -30 -30 -27 0 -30 -3 -30 -30 0 -27 -3 -30 -30
-30 l-30 0 0 -60 0 -60 30 0 c27 0 30 -3 30 -30 0 -27 3 -30 30 -30 27 0 30
-3 30 -30 0 -27 3 -30 30 -30 28 0 30 -3 30 -35 0 -32 2 -35 30 -35 27 0 30
-3 30 -30 0 -27 3 -30 30 -30 27 0 30 -3 30 -30 0 -27 3 -30 30 -30 l30 0 0
-60 0 -60 35 0 c32 0 35 -2 35 -30 0 -27 3 -30 30 -30 27 0 30 -3 30 -30 0
-27 3 -30 30 -30 27 0 30 -3 30 -30 0 -27 3 -30 30 -30 27 0 30 -3 30 -30 0
-27 3 -30 30 -30 27 0 30 -3 30 -30 l0 -30 60 0 60 0 0 60 0 60 30 0 30 0 0
60 0 60 30 0 30 0 0 60 0 60 30 0 c27 0 30 3 30 30 l0 30 95 0 95 0 0 30 0 30
60 0 60 0 0 30 0 30 90 0 90 0 0 35 0 35 60 0 60 0 0 30 c0 27 3 30 30 30 l30
0 0 60 0 60 30 0 30 0 0 60 0 60 30 0 30 0 0 120 0 120 65 0 65 0 0 -30 c0
-27 3 -30 30 -30 27 0 30 -3 30 -30 0 -27 3 -30 30 -30 27 0 30 -3 30 -30 0
-27 3 -30 30 -30 27 0 30 -3 30 -30 0 -27 3 -30 30 -30 27 0 30 -3 30 -30 0
-27 3 -30 30 -30 27 0 30 -3 30 -30 0 -27 3 -30 30 -30 27 0 30 -3 30 -30 0
-27 3 -30 30 -30 27 0 30 -3 30 -30 0 -27 3 -30 30 -30 27 0 30 -3 30 -30 0
-27 3 -30 30 -30 28 0 30 -3 30 -35 0 -32 2 -35 30 -35 27 0 30 -3 30 -30 0
-27 3 -30 30 -30 27 0 30 -3 30 -30 l0 -30 -60 0 -60 0 0 -30 0 -30 -60 0 -60
0 0 -30 c0 -27 -3 -30 -30 -30 -27 0 -30 -3 -30 -30 0 -27 -3 -30 -30 -30 -27
0 -30 -3 -30 -30 0 -27 -3 -30 -30 -30 -27 0 -30 -3 -30 -30 0 -27 -3 -30 -30
-30 -27 0 -30 -3 -30 -30 0 -27 -3 -30 -30 -30 -27 0 -30 -3 -30 -30 0 -27 -3
-30 -30 -30 -27 0 -30 -3 -30 -30 0 -27 -3 -30 -30 -30 -27 0 -30 -3 -30 -30
0 -28 -3 -30 -35 -30 l-35 0 0 -65 0 -65 -60 0 -60 0 0 -30 c0 -27 -3 -30 -30
-30 -27 0 -30 3 -30 30 l0 30 -120 0 -120 0 0 -30 c0 -27 -3 -30 -30 -30 -27
0 -30 -3 -30 -30 l0 -30 -90 0 -90 0 0 30 c0 28 -3 30 -35 30 -32 0 -35 2 -35
30 l0 30 -90 0 -90 0 0 -30 c0 -27 -3 -30 -30 -30 -27 0 -30 -3 -30 -30 0 -27
-3 -30 -30 -30 -27 0 -30 3 -30 30 0 27 -3 30 -30 30 -27 0 -30 3 -30 30 l0
30 -185 0 -185 0 0 -30 c0 -27 -3 -30 -30 -30 -27 0 -30 -3 -30 -30 0 -27 -3
-30 -30 -30 l-30 0 0 -90 0 -90 -30 0 -30 0 0 -120 0 -120 335 0 335 0 0 30
c0 27 3 30 30 30 27 0 30 -3 30 -30 l0 -30 455 0 455 0 0 -30 c0 -28 3 -30 35
-30 l35 0 0 -65 0 -65 -35 0 c-32 0 -35 -2 -35 -30 0 -27 -3 -30 -30 -30 -27
0 -30 -3 -30 -30 0 -27 -3 -30 -30 -30 -27 0 -30 -3 -30 -30 0 -27 -3 -30 -30
-30 -27 0 -30 -3 -30 -30 0 -27 -3 -30 -30 -30 -27 0 -30 -3 -30 -30 0 -27 -3
-30 -30 -30 -27 0 -30 -3 -30 -30 l0 -30 60 0 60 0 0 30 c0 27 3 30 30 30 27
0 30 3 30 30 0 27 3 30 30 30 27 0 30 3 30 30 0 27 3 30 30 30 27 0 30 3 30
30 0 28 3 30 35 30 32 0 35 2 35 30 l0 30 60 0 60 0 0 -30 c0 -27 3 -30 30
-30 27 0 30 -3 30 -30 0 -27 3 -30 30 -30 27 0 30 -3 30 -30 l0 -30 90 0 90 0
0 -30 0 -30 215 0 215 0 0 30 0 30 150 0 150 0 0 30 0 30 60 0 60 0 0 30 0 30
155 0 155 0 0 30 0 30 120 0 120 0 0 30 0 30 60 0 60 0 0 -30 c0 -27 3 -30 30
-30 27 0 30 -3 30 -30 0 -27 3 -30 30 -30 27 0 30 -3 30 -30 0 -27 3 -30 30
-30 27 0 30 -3 30 -30 0 -27 3 -30 30 -30 27 0 30 -3 30 -30 l0 -30 65 0 65 0
0 30 c0 27 -3 30 -30 30 -27 0 -30 3 -30 30 0 28 -3 30 -35 30 -32 0 -35 2
-35 30 0 27 -3 30 -30 30 -27 0 -30 3 -30 30 0 27 -3 30 -30 30 -27 0 -30 3
-30 30 0 27 -3 30 -30 30 -28 0 -30 3 -30 35 0 32 2 35 30 35 l30 0 0 60 0 60
125 0 125 0 0 30 c0 27 3 30 30 30 27 0 30 -3 30 -30 l0 -30 670 0 670 0 0 30
c0 27 3 30 30 30 27 0 30 3 30 30 0 27 3 30 30 30 l30 0 0 90 0 90 30 0 30 0
0 60 0 60 -30 0 c-27 0 -30 3 -30 30 0 27 -3 30 -30 30 -27 0 -30 3 -30 30 l0
30 -155 0 -155 0 0 -30 c0 -27 -3 -30 -30 -30 -27 0 -30 -3 -30 -30 0 -27 -3
-30 -30 -30 -27 0 -30 -3 -30 -30 0 -27 -3 -30 -30 -30 l-30 0 0 -60 0 -60
-30 0 -30 0 0 120 0 120 -30 0 c-27 0 -30 3 -30 30 l0 30 -60 0 -60 0 0 -30
c0 -27 -3 -30 -30 -30 -27 0 -30 3 -30 30 l0 30 -125 0 -125 0 0 -30 c0 -27
-3 -30 -30 -30 -27 0 -30 -3 -30 -30 0 -27 -3 -30 -30 -30 -27 0 -30 3 -30 30
0 27 -3 30 -30 30 -27 0 -30 3 -30 30 l0 30 -90 0 -90 0 0 -30 c0 -27 -3 -30
-30 -30 -27 0 -30 -3 -30 -30 0 -27 -3 -30 -30 -30 -27 0 -30 3 -30 30 0 28
-3 30 -35 30 -32 0 -35 2 -35 30 l0 30 -90 0 -90 0 0 95 0 95 -30 0 c-27 0
-30 3 -30 30 0 27 -3 30 -30 30 l-30 0 0 60 0 60 -30 0 c-27 0 -30 3 -30 30 0
27 -3 30 -30 30 -27 0 -30 3 -30 30 0 27 -3 30 -30 30 -27 0 -30 3 -30 30 0
27 -3 30 -30 30 -27 0 -30 3 -30 30 l0 30 -95 0 -95 0 0 60 0 60 35 0 c32 0
35 2 35 30 0 27 3 30 30 30 28 0 30 3 30 35 0 32 2 35 30 35 27 0 30 3 30 30
0 27 3 30 30 30 27 0 30 3 30 30 0 27 3 30 30 30 27 0 30 3 30 30 0 27 3 30
30 30 27 0 30 3 30 30 0 27 3 30 30 30 27 0 30 3 30 30 0 27 3 30 30 30 27 0
30 3 30 30 0 27 3 30 30 30 27 0 30 3 30 30 0 27 3 30 30 30 27 0 30 3 30 30
0 27 3 30 30 30 27 0 30 3 30 30 0 27 3 30 30 30 27 0 30 3 30 30 l0 30 65 0
65 0 0 -60 0 -60 30 0 30 0 0 -90 0 -90 30 0 30 0 0 -60 0 -60 30 0 30 0 0
-60 0 -60 30 0 c27 0 30 -3 30 -30 0 -27 3 -30 30 -30 28 0 30 -3 30 -35 0
-32 2 -35 30 -35 27 0 30 -3 30 -30 l0 -30 90 0 90 0 0 -30 0 -30 125 0 125 0
0 -30 0 -30 60 0 60 0 0 -30 c0 -27 3 -30 30 -30 27 0 30 -3 30 -30 0 -27 3
-30 30 -30 27 0 30 -3 30 -30 0 -27 3 -30 30 -30 27 0 30 -3 30 -30 0 -27 3
-30 30 -30 27 0 30 3 30 30 0 27 3 30 30 30 l30 0 0 60 0 60 30 0 c27 0 30 3
30 30 0 27 3 30 30 30 27 0 30 3 30 30 l0 30 65 0 65 0 0 30 c0 27 3 30 30 30
27 0 30 3 30 30 0 27 3 30 30 30 28 0 30 3 30 35 0 32 2 35 30 35 27 0 30 3
30 30 0 27 3 30 30 30 27 0 30 3 30 30 0 27 3 30 30 30 27 0 30 3 30 30 0 27
3 30 30 30 27 0 30 3 30 30 0 27 -3 30 -30 30 l-30 0 0 60 0 60 -30 0 c-27 0
-30 3 -30 30 0 27 -3 30 -30 30 -27 0 -30 3 -30 30 l0 30 -60 0 -60 0 0 30 0
30 -60 0 -60 0 0 30 0 30 -65 0 -65 0 0 30 0 30 -60 0 -60 0 0 35 0 35 -120 0
-120 0 0 30 c0 27 -3 30 -30 30 l-30 0 0 60 0 60 -30 0 -30 0 0 60 0 60 -30 0
-30 0 0 180 0 180 -30 0 c-28 0 -30 3 -30 35 0 33 -2 35 -35 35 -33 0 -35 -2
-35 -35 0 -32 -2 -35 -30 -35 -27 0 -30 -3 -30 -30 0 -27 -3 -30 -30 -30 -27
0 -30 -3 -30 -30 0 -27 -3 -30 -30 -30 -27 0 -30 -3 -30 -30 0 -27 -3 -30 -30
-30 -27 0 -30 -3 -30 -30 0 -27 -3 -30 -30 -30 -27 0 -30 -3 -30 -30 0 -27 -3
-30 -30 -30 -27 0 -30 -3 -30 -30 0 -27 -3 -30 -30 -30 -27 0 -30 -3 -30 -30
0 -27 -3 -30 -30 -30 -27 0 -30 -3 -30 -30 0 -27 -3 -30 -30 -30 -27 0 -30 -3
-30 -30 0 -27 -3 -30 -30 -30 -27 0 -30 -3 -30 -30 0 -27 -3 -30 -30 -30 -27
0 -30 -3 -30 -30 0 -28 -3 -30 -35 -30 -33 0 -35 -2 -35 -35 0 -32 -2 -35 -30
-35 -27 0 -30 -3 -30 -30 0 -27 -3 -30 -30 -30 -27 0 -30 -3 -30 -30 0 -27 -3
-30 -30 -30 -27 0 -30 -3 -30 -30 0 -27 -3 -30 -30 -30 -27 0 -30 -3 -30 -30
0 -27 -3 -30 -30 -30 -27 0 -30 -3 -30 -30 0 -27 -3 -30 -30 -30 -27 0 -30 -3
-30 -30 0 -27 -3 -30 -30 -30 -27 0 -30 -3 -30 -30 0 -27 -3 -30 -30 -30 -27
0 -30 -3 -30 -30 0 -27 -3 -30 -30 -30 -27 0 -30 -3 -30 -30 0 -27 -3 -30 -30
-30 -27 0 -30 -3 -30 -30 0 -27 -3 -30 -30 -30 -27 0 -30 -3 -30 -30 0 -28 -3
-30 -35 -30 -33 0 -35 -2 -35 -35 0 -32 -2 -35 -30 -35 -27 0 -30 -3 -30 -30
l0 -30 -330 0 -330 0 0 30 c0 28 -3 30 -35 30 -33 0 -35 2 -35 35 0 32 -2 35
-30 35 -27 0 -30 3 -30 30 0 27 -3 30 -30 30 -27 0 -30 3 -30 30 0 27 -3 30
-30 30 -27 0 -30 3 -30 30 0 27 -3 30 -30 30 -27 0 -30 3 -30 30 0 27 -3 30
-30 30 -27 0 -30 3 -30 30 0 27 -3 30 -30 30 -27 0 -30 3 -30 30 0 27 -3 30
-30 30 -27 0 -30 3 -30 30 0 27 -3 30 -30 30 -27 0 -30 3 -30 30 0 27 -3 30
-30 30 -27 0 -30 3 -30 30 0 27 -3 30 -30 30 -27 0 -30 3 -30 30 0 27 -3 30
-30 30 -27 0 -30 3 -30 30 0 28 -3 30 -35 30 -33 0 -35 2 -35 35 0 32 -2 35
-30 35 -27 0 -30 3 -30 30 0 27 -3 30 -30 30 -27 0 -30 3 -30 30 0 27 -3 30
-30 30 -27 0 -30 3 -30 30 0 27 -3 30 -30 30 -27 0 -30 3 -30 30 0 27 -3 30
-30 30 -27 0 -30 3 -30 30 0 27 -3 30 -30 30 -27 0 -30 3 -30 30 0 27 -3 30
-30 30 -27 0 -30 3 -30 30 0 27 -3 30 -30 30 -27 0 -30 3 -30 30 0 27 -3 30
-30 30 -27 0 -30 3 -30 30 0 27 -3 30 -30 30 -27 0 -30 3 -30 30 0 27 -3 30
-30 30 -27 0 -30 3 -30 30 0 28 -3 30 -35 30 -33 0 -35 2 -35 35 l0 35 -90 0
-90 0 0 -155z m370 -185 c0 -27 3 -30 30 -30 27 0 30 -3 30 -30 0 -27 3 -30
30 -30 27 0 30 -3 30 -30 0 -27 3 -30 30 -30 l30 0 0 -60 0 -60 -30 0 c-27 0
-30 -3 -30 -30 0 -27 -3 -30 -30 -30 l-30 0 0 -65 0 -65 -30 0 c-28 0 -30 3
-30 35 0 32 -2 35 -30 35 -27 0 -30 3 -30 30 0 27 -3 30 -30 30 l-30 0 0 120
0 120 30 0 30 0 0 60 0 60 30 0 c27 0 30 -3 30 -30z m3400 -120 l0 -90 30 0
30 0 0 -60 0 -60 30 0 30 0 0 -65 0 -65 35 0 c32 0 35 -2 35 -30 0 -28 -3 -30
-35 -30 -32 0 -35 -2 -35 -30 l0 -30 -60 0 -60 0 0 -30 c0 -27 -3 -30 -30 -30
l-30 0 0 60 0 60 -30 0 -30 0 0 65 0 65 -30 0 c-27 0 -30 3 -30 30 0 27 -3 30
-30 30 l-30 0 0 90 0 90 30 0 c27 0 30 3 30 30 0 27 3 30 30 30 27 0 30 3 30
30 l0 30 60 0 60 0 0 -90z m-3770 -60 l0 -30 60 0 60 0 0 -60 0 -60 -30 0
c-27 0 -30 -3 -30 -30 0 -27 -3 -30 -30 -30 -28 0 -30 -3 -30 -35 l0 -35 -90
0 -90 0 0 65 0 65 30 0 c27 0 30 3 30 30 0 27 3 30 30 30 l30 0 0 60 0 60 30
0 c27 0 30 -3 30 -30z m4200 -245 l0 -35 120 0 120 0 0 -30 c0 -27 -3 -30 -30
-30 -27 0 -30 -3 -30 -30 0 -27 -3 -30 -30 -30 -27 0 -30 -3 -30 -30 l0 -30
-120 0 -120 0 0 30 c0 27 -3 30 -30 30 l-30 0 0 95 0 95 90 0 90 0 0 -35z
m-3710 -125 c0 -27 3 -30 30 -30 27 0 30 -3 30 -30 0 -27 3 -30 30 -30 27 0
30 -3 30 -30 l0 -30 60 0 60 0 0 -90 0 -90 -30 0 -30 0 0 -60 0 -60 -30 0
c-27 0 -30 -3 -30 -30 l0 -30 -60 0 -60 0 0 -30 c0 -27 -3 -30 -30 -30 -27 0
-30 3 -30 30 0 27 -3 30 -30 30 -27 0 -30 3 -30 30 0 27 -3 30 -30 30 -27 0
-30 3 -30 30 0 27 -3 30 -30 30 -27 0 -30 3 -30 30 0 28 -3 30 -35 30 -32 0
-35 2 -35 30 0 27 -3 30 -30 30 -27 0 -30 3 -30 30 0 27 3 30 30 30 27 0 30 3
30 30 0 28 3 30 35 30 32 0 35 2 35 30 0 27 3 30 30 30 27 0 30 3 30 30 l0 30
60 0 60 0 0 30 c0 27 3 30 30 30 27 0 30 -3 30 -30z m-550 -60 c0 -27 3 -30
30 -30 27 0 30 -3 30 -30 0 -27 3 -30 30 -30 l30 0 0 -60 0 -60 -30 0 c-27 0
-30 -3 -30 -30 0 -27 -3 -30 -30 -30 -27 0 -30 -3 -30 -30 l0 -30 -60 0 -60 0
0 -30 c0 -27 -3 -30 -30 -30 l-30 0 0 60 0 60 -30 0 c-27 0 -30 3 -30 30 0 27
-3 30 -30 30 -27 0 -30 3 -30 30 0 27 3 30 30 30 27 0 30 3 30 30 0 27 3 30
30 30 27 0 30 3 30 30 0 27 3 30 30 30 27 0 30 3 30 30 l0 30 60 0 60 0 0 -30z
m-420 -60 c0 -27 3 -30 30 -30 l30 0 0 -60 0 -60 -30 0 -30 0 0 -60 0 -60 -35
0 c-32 0 -35 -2 -35 -30 0 -27 -3 -30 -30 -30 -27 0 -30 -3 -30 -30 l0 -30
-90 0 -90 0 0 30 c0 27 -3 30 -30 30 -27 0 -30 3 -30 30 0 27 3 30 30 30 27 0
30 3 30 30 0 27 3 30 30 30 27 0 30 3 30 30 0 27 3 30 30 30 l30 0 0 60 0 60
30 0 c27 0 30 3 30 30 l0 30 65 0 65 0 0 -30z m4190 -60 c0 -27 3 -30 30 -30
27 0 30 -3 30 -30 0 -27 3 -30 30 -30 l30 0 0 -60 0 -60 30 0 c27 0 30 -3 30
-30 0 -27 -3 -30 -30 -30 -27 0 -30 -3 -30 -30 l0 -30 -60 0 -60 0 0 -30 0
-30 -60 0 -60 0 0 30 c0 27 -3 30 -30 30 l-30 0 0 60 0 60 -30 0 -30 0 0 60 0
60 30 0 c27 0 30 3 30 30 l0 30 60 0 60 0 0 30 c0 27 3 30 30 30 27 0 30 -3
30 -30z m1220 0 c0 -27 3 -30 30 -30 l30 0 0 -60 0 -60 30 0 c27 0 30 -3 30
-30 l0 -30 -60 0 -60 0 0 -30 0 -30 -90 0 -90 0 0 30 0 30 -65 0 -65 0 0 30
c0 28 3 30 35 30 32 0 35 2 35 30 0 27 3 30 30 30 27 0 30 3 30 30 0 27 3 30
30 30 27 0 30 3 30 30 l0 30 60 0 60 0 0 -30z m-730 -60 l0 -30 60 0 60 0 0
-30 0 -30 90 0 90 0 0 -30 0 -30 -60 0 -60 0 0 -60 0 -60 -30 0 c-27 0 -30 -3
-30 -30 0 -27 -3 -30 -30 -30 -27 0 -30 3 -30 30 0 27 -3 30 -30 30 -27 0 -30
3 -30 30 l0 30 -90 0 -90 0 0 60 0 60 30 0 c27 0 30 3 30 30 0 27 3 30 30 30
27 0 30 3 30 30 0 27 3 30 30 30 27 0 30 -3 30 -30z m-4320 -395 l0 -65 30 0
30 0 0 -90 0 -90 -30 0 -30 0 0 -60 0 -60 -30 0 -30 0 0 -60 0 -60 -30 0 c-27
0 -30 3 -30 30 0 27 -3 30 -30 30 -27 0 -30 3 -30 30 0 27 -3 30 -30 30 -27 0
-30 3 -30 30 0 27 -3 30 -30 30 -27 0 -30 3 -30 30 0 27 -3 30 -30 30 -27 0
-30 3 -30 30 0 27 3 30 30 30 27 0 30 3 30 30 0 27 3 30 30 30 27 0 30 3 30
30 0 27 3 30 30 30 27 0 30 3 30 30 0 27 3 30 30 30 28 0 30 3 30 35 l0 35 60
0 60 0 0 -65z m4560 -35 c0 -27 3 -30 30 -30 27 0 30 -3 30 -30 0 -27 3 -30
30 -30 27 0 30 -3 30 -30 0 -27 -3 -30 -30 -30 -27 0 -30 -3 -30 -30 0 -27 -3
-30 -30 -30 l-30 0 0 -60 0 -60 -30 0 c-27 0 -30 3 -30 30 0 27 -3 30 -30 30
-27 0 -30 3 -30 30 0 27 -3 30 -30 30 -27 0 -30 3 -30 30 0 27 -3 30 -30 30
l-30 0 0 60 0 60 30 0 c27 0 30 3 30 30 l0 30 90 0 90 0 0 -30z m-4620 -880
l0 -60 60 0 60 0 0 30 c0 27 3 30 30 30 27 0 30 3 30 30 l0 30 90 0 90 0 0
-30 c0 -28 3 -30 35 -30 32 0 35 -2 35 -30 l0 -30 90 0 90 0 0 30 c0 27 3 30
30 30 27 0 30 3 30 30 l0 30 120 0 120 0 0 -30 c0 -27 3 -30 30 -30 27 0 30 3
30 30 l0 30 125 0 125 0 0 -30 c0 -27 -3 -30 -30 -30 l-30 0 0 -60 0 -60 -35
0 -35 0 0 -60 0 -60 35 0 c32 0 35 -2 35 -30 l0 -30 -125 0 -125 0 0 30 c0 27
-3 30 -30 30 -27 0 -30 -3 -30 -30 l0 -30 -150 0 -150 0 0 30 c0 27 -3 30 -30
30 l-30 0 0 60 0 60 -30 0 -30 0 0 -90 0 -90 -65 0 -65 0 0 60 0 60 -90 0 -90
0 0 -60 0 -60 -150 0 -150 0 0 60 0 60 -60 0 -60 0 0 -60 0 -60 -65 0 -65 0 0
90 0 90 30 0 30 0 0 90 0 90 185 0 185 0 0 -60z m1400 30 c0 -27 3 -30 30 -30
l30 0 0 -60 0 -60 30 0 c27 0 30 3 30 30 0 27 3 30 30 30 l30 0 0 60 0 60 60
0 60 0 0 -60 0 -60 60 0 60 0 0 30 c0 28 3 30 35 30 32 0 35 2 35 30 l0 30
120 0 120 0 0 -30 c0 -27 3 -30 30 -30 27 0 30 -3 30 -30 l0 -30 -60 0 -60 0
0 30 0 30 -60 0 -60 0 0 -30 0 -30 -65 0 -65 0 0 -90 0 -90 95 0 95 0 0 30 0
30 -60 0 -60 0 0 30 0 30 120 0 120 0 0 -60 0 -60 -30 0 c-27 0 -30 -3 -30
-30 l0 -30 -155 0 -155 0 0 30 c0 27 -3 30 -30 30 l-30 0 0 60 0 60 -30 0 -30
0 0 -90 0 -90 -60 0 -60 0 0 30 c0 27 -3 30 -30 30 -27 0 -30 3 -30 30 0 27
-3 30 -30 30 -27 0 -30 3 -30 30 0 27 -3 30 -30 30 l-30 0 0 -90 0 -90 -60 0
-60 0 0 90 0 90 30 0 30 0 0 90 0 90 60 0 60 0 0 -30z m1460 0 c0 -27 3 -30
30 -30 27 0 30 3 30 30 l0 30 60 0 60 0 0 -30 c0 -27 3 -30 30 -30 l30 0 0
-60 0 -60 30 0 c27 0 30 3 30 30 0 27 3 30 30 30 l30 0 0 60 0 60 60 0 60 0 0
-90 0 -90 35 0 c32 0 35 2 35 30 0 27 3 30 30 30 27 0 30 3 30 30 0 27 3 30
30 30 27 0 30 3 30 30 l0 30 90 0 90 0 0 -30 c0 -27 3 -30 30 -30 27 0 30 -3
30 -30 0 -27 3 -30 30 -30 27 0 30 -3 30 -30 0 -27 -3 -30 -30 -30 l-30 0 0
-90 0 -90 -60 0 -60 0 0 60 0 60 -90 0 -90 0 0 -60 0 -60 -65 0 -65 0 0 90 0
90 -30 0 -30 0 0 -90 0 -90 -60 0 -60 0 0 30 c0 27 -3 30 -30 30 -27 0 -30 3
-30 30 0 27 -3 30 -30 30 -27 0 -30 3 -30 30 0 27 -3 30 -30 30 l-30 0 0 -90
0 -90 -60 0 -60 0 0 30 c0 27 -3 30 -30 30 -27 0 -30 -3 -30 -30 l0 -30 -185
0 -185 0 0 30 0 30 155 0 155 0 0 30 0 30 -125 0 -125 0 0 90 0 90 30 0 c27 0
30 3 30 30 l0 30 155 0 155 0 0 -30z m1280 0 c0 -28 -3 -30 -35 -30 l-35 0 0
-60 0 -60 -30 0 -30 0 0 -60 0 -60 30 0 c27 0 30 -3 30 -30 l0 -30 -120 0
-120 0 0 30 c0 27 3 30 30 30 l30 0 0 60 0 60 30 0 30 0 0 60 0 60 -30 0 c-27
0 -30 3 -30 30 l0 30 125 0 125 0 0 -30z m180 -60 l0 -90 -30 0 -30 0 0 -60 0
-60 270 0 270 0 0 30 0 30 -120 0 -120 0 0 90 0 90 30 0 c27 0 30 3 30 30 l0
30 155 0 155 0 0 -30 c0 -27 3 -30 30 -30 27 0 30 -3 30 -30 l0 -30 -60 0 -60
0 0 30 0 30 -95 0 -95 0 0 -60 0 -60 95 0 95 0 0 -30 c0 -27 3 -30 30 -30 27
0 30 -3 30 -30 0 -27 -3 -30 -30 -30 -27 0 -30 -3 -30 -30 l0 -30 -365 0 -365
0 0 90 0 90 30 0 30 0 0 90 0 90 60 0 60 0 0 -90z"/>
<path d="M2260 4140 l0 -60 90 0 90 0 0 -30 c0 -27 -3 -30 -30 -30 -27 0 -30
-3 -30 -30 l0 -30 60 0 60 0 0 60 0 60 -30 0 -30 0 0 60 0 60 -90 0 -90 0 0
-60z"/>
<path d="M3230 4170 l0 -30 -60 0 -60 0 0 -90 0 -90 90 0 90 0 0 30 0 30 60 0
60 0 0 -30 c0 -27 3 -30 30 -30 l30 0 0 60 0 60 30 0 30 0 0 60 0 60 -30 0
c-27 0 -30 -3 -30 -30 l0 -30 -60 0 -60 0 0 30 0 30 -60 0 -60 0 0 -30z"/>
<path d="M5110 4140 l0 -60 95 0 95 0 0 -30 c0 -27 3 -30 30 -30 27 0 30 3 30
30 0 27 3 30 30 30 27 0 30 3 30 30 l0 30 -60 0 -60 0 0 30 0 30 -95 0 -95 0
0 -60z"/>
</g>
</svg>
